<?xml version="1.0" encoding="UTF-8" standalone="no"?>
<!-- Created with Inkscape (http://www.inkscape.org/) -->

<svg
   width="87.542915mm"
   height="84.336975mm"
   viewBox="0 0 87.542916 84.336975"
   version="1.1"
   id="svg5"
   inkscape:version="1.1 (c68e22c387, 2021-05-23)"
   sodipodi:docname="vent.svg"
   xmlns:inkscape="http://www.inkscape.org/namespaces/inkscape"
   xmlns:sodipodi="http://sodipodi.sourceforge.net/DTD/sodipodi-0.dtd"
   xmlns="http://www.w3.org/2000/svg"
   xmlns:svg="http://www.w3.org/2000/svg">
  <sodipodi:namedview
     id="namedview7"
     pagecolor="#ffffff"
     bordercolor="#666666"
     borderopacity="1.0"
     inkscape:pageshadow="2"
     inkscape:pageopacity="0.0"
     inkscape:pagecheckerboard="0"
     inkscape:document-units="mm"
     showgrid="false"
     fit-margin-top="0"
     fit-margin-left="0"
     fit-margin-right="0"
     fit-margin-bottom="0"
     inkscape:zoom="2.5066358"
     inkscape:cx="159.97537"
     inkscape:cy="159.37696"
     inkscape:window-width="1912"
     inkscape:window-height="1008"
     inkscape:window-x="4"
     inkscape:window-y="31"
     inkscape:window-maximized="0"
     inkscape:current-layer="layer2" />
  <defs
     id="defs2" />
  <g
     inkscape:label="Base"
     inkscape:groupmode="layer"
     id="layer1"
     style="display:inline" />
  <g
     inkscape:groupmode="layer"
     id="layer2"
     inkscape:label="Normal"
     style="display:inline">
    <path
       style="fill:#000000;stroke-width:0.264583"
       d="m 34.45803,22.490606 c -0.0785,-0.40018 -0.22085,-1.44198 -0.31643,-2.31511 -0.12589,-1.1499 -0.97008,-3.51407 -3.06251,-8.5766 -1.58879,-3.8440099 -2.79531,-7.0721099 -2.68115,-7.1735499 0.19089,-0.16962 11.29125,-2.3738 11.95458,-2.3738 0.2053,0 0.29158,2.17159 0.29171,7.34218 1.8e-4,7.0599899 0.0263,7.4372999 0.67846,9.8166799 0.37305,1.36098 0.63182,2.52095 0.57505,2.57772 -0.12463,0.12463 -6.4759,1.43008 -6.9576,1.43008 -0.18671,0 -0.40366,-0.32742 -0.48211,-0.7276 z"
       id="path1519" />
    <path
       style="fill:#000000;stroke-width:0.264583"
       d="m 52.81488,25.376256 -3.04271,-2.04379 -3.67453,-0.711 c -2.02099,-0.39105 -3.70722,-0.74418 -3.74718,-0.78473 -0.04,-0.0405 0.2142,-1.1453 0.56478,-2.45499 0.60304,-2.25278 0.63747,-2.78961 0.63832,-9.9507099 l 9e-4,-7.56946 5.75469,1.14884 c 3.16508,0.63186 6.00851,1.20912 6.31875,1.2828 0.53481,0.12702 0.41543,0.49142 -2.30223,7.0268899 -2.22923,5.3609 -2.93367,7.3537 -3.16943,8.96606 -0.46939,3.21018 -0.33471,3.3138 1.38173,1.06309 1.26669,-1.66098 1.94149,-3.03925 4.3313,-8.84667 1.55696,-3.7835399 2.85225,-6.9051499 2.87842,-6.9368999 0.0262,-0.0317 2.46917,1.55786 5.42889,3.53246 l 5.38131,3.5901799 -5.5656,5.59567 c -4.22473,4.24756 -5.80897,6.02594 -6.57578,7.38161 -0.55559,0.98226 -1.13364,1.77885 -1.28455,1.77019 -0.15091,-0.009 -1.64359,-0.93545 -3.31708,-2.05954 z"
       id="path1513" />
    <path
       style="fill:#000000;stroke-width:0.264583"
       d="m 26.86241,25.660356 c -0.93292,-1.71451 -1.99199,-2.93201 -6.5489,-7.5285 -2.9898,-3.01577 -5.3833,-5.52928 -5.31888,-5.58558 0.0644,-0.0563 2.45943,-1.6621 5.32225,-3.5684399 l 5.20513,-3.46606 0.84987,2.04019 c 0.46743,1.12211 1.78455,4.2927599 2.92694,7.0458899 1.50162,3.61888 2.42088,5.45143 3.31808,6.61458 0.68256,0.88489 1.34726,1.74994 1.47711,1.92232 0.16519,0.21928 -0.7183,0.95283 -2.9413,2.44215 l -3.1774,2.12872 z"
       id="path1511" />
    <path
       style="fill:#000000;stroke-width:0.264583"
       d="m 58.54425,31.025326 c -1.11386,-1.67245 -2.02521,-3.09286 -2.02521,-3.15647 0,-0.0636 0.92274,-0.61777 2.05053,-1.23146 1.72009,-0.93599 2.93116,-1.98885 7.51544,-6.53358 l 5.46493,-5.41779 3.48793,5.22188 c 1.91836,2.87204 3.3882,5.31957 3.26632,5.43898 -0.12188,0.1194 -3.24042,1.4702 -6.93008,3.00178 -5.48265,2.27585 -7.06448,3.05265 -8.65674,4.25108 -1.07155,0.80651 -1.99319,1.46638 -2.04809,1.46638 -0.0549,0 -1.01117,-1.36836 -2.12503,-3.0408 z"
       id="path1509" />
    <path
       style="fill:#000000;stroke-width:0.264583"
       d="m 21.62557,32.617236 c -1.57015,-1.21316 -2.98438,-1.90625 -8.69245,-4.25998 -3.74946,-1.5461 -6.90782,-2.89567 -7.01856,-2.99904 -0.14448,-0.13484 5.8588,-9.39696 6.86684,-10.59447 0.0556,-0.066 2.5672,2.331 5.58135,5.32678 4.27633,4.25029 5.90593,5.69125 7.41795,6.55928 1.28836,0.73963 1.89069,1.23489 1.79743,1.47792 -0.17814,0.46423 -3.84543,5.9384 -3.97829,5.9384 -0.0545,0 -0.94289,-0.652 -1.97427,-1.44889 z"
       id="path1507" />
    <path
       style="fill:#000000;stroke-width:0.264583"
       d="m 61.47613,38.117976 c -0.39247,-1.99158 -0.6846,-3.65003 -0.64919,-3.68544 0.0354,-0.0354 1.13445,-0.2098 2.44231,-0.38754 2.02027,-0.27456 3.42844,-0.75563 9.36254,-3.19851 3.84154,-1.58145 7.01473,-2.84343 7.05152,-2.80442 0.0775,0.0822 2.50234,12.14287 2.50112,12.4402 -5.2e-4,0.10915 -3.51465,0.19844 -7.80936,0.19844 -6.99565,0 -8.00735,0.0551 -9.71812,0.52917 -1.05026,0.29104 -2.03504,0.52917 -2.18841,0.52917 -0.15336,0 -0.59995,-1.62948 -0.99241,-3.62107 z"
       id="path1505" />
    <path
       style="fill:#000000;stroke-width:0.264583"
       d="m 19.47738,41.190686 c -1.52247,-0.44963 -2.60271,-0.50803 -9.41476,-0.50895 -4.23223,-5.3e-4 -7.75633,-0.0624 -7.83133,-0.1374 -0.075,-0.075 0.41921,-2.90274 1.09825,-6.28385 1.04295,-5.19313 1.30285,-6.13562 1.67412,-6.07104 0.24172,0.042 3.38884,1.30301 6.99359,2.80215 5.62876,2.34087 6.88654,2.76838 8.90887,3.02799 1.29513,0.16625 2.41334,0.36084 2.48491,0.43241 0.11595,0.11595 -0.27166,2.34839 -1.04701,6.03027 -0.30433,1.44516 -0.34119,1.45427 -2.86664,0.70842 z"
       id="path1503" />
    <path
       style="fill:#000000;stroke-width:0.264583"
       d="m 71.26369,47.704146 c -5.2056,-1.05595 -9.52409,-1.97927 -9.59663,-2.05182 -0.11434,-0.11433 0.26346,-2.41936 0.53942,-3.29114 0.0673,-0.21251 0.75813,-0.11501 2.29761,0.32428 2.09566,0.59799 2.58591,0.62848 10.20506,0.63462 7.66959,0.006 8.00364,0.0273 8.00364,0.5065 0,0.27502 -0.23812,1.65734 -0.52916,3.07183 -0.29104,1.41449 -0.52917,2.61822 -0.52917,2.67496 0,0.21208 -1.15195,0.005 -10.39077,-1.86923 z"
       id="path1499" />
    <path
       style="fill:#000000;stroke-width:0.264583"
       d="m 9.20674,63.930896 c -1.93807,-2.92086 -3.48588,-5.33846 -3.43958,-5.37244 0.0463,-0.034 3.17482,-1.33617 6.95228,-2.89376 5.71556,-2.35673 7.20112,-3.08261 8.85251,-4.32554 1.09142,-0.82147 1.83267,-1.54416 1.64721,-1.60598 -0.18545,-0.0618 -1.31158,0.0262 -2.50251,0.1957 -1.72687,0.24571 -3.5218,0.86871 -8.86452,3.07675 -3.68456,1.52275 -6.82908,2.79564 -6.98784,2.82863 -0.29808,0.0619 -2.88965,-12.1147 -2.633,-12.37135 0.075,-0.075 3.48004,-0.13326 7.56675,-0.12946 6.85004,0.006 7.61018,-0.0394 9.73243,-0.58631 1.26613,-0.32628 2.36741,-0.52787 2.4473,-0.44798 0.0799,0.0799 0.48037,1.80303 0.88998,3.82922 l 0.74473,3.68398 1.91269,2.85082 c 1.05198,1.56795 1.97492,3.01299 2.05098,3.2112 0.0912,0.23768 -0.52076,0.72627 -1.79743,1.43505 -1.5726,0.87309 -2.95272,2.09436 -7.35726,6.51048 -2.98184,2.98969 -5.48215,5.43262 -5.55625,5.42872 -0.0741,-0.004 -1.7204,-2.39687 -3.65847,-5.31773 z"
       id="path1495" />
    <path
       style="fill:#000000;stroke-width:0.264583"
       d="m 20.18058,74.896886 -5.24993,-3.59127 5.28308,-5.32443 c 4.37192,-4.40614 5.4982,-5.70107 6.5304,-7.50821 0.78979,-1.38273 1.35996,-2.1174 1.55435,-2.00283 0.34116,0.20108 5.80801,3.82085 5.95817,3.9451 0.0522,0.0432 -0.61171,1.00816 -1.47534,2.14438 -1.34754,1.77288 -1.97631,3.0509 -4.43339,9.01119 -1.57474,3.81992 -2.87537,6.93901 -2.89029,6.93132 -0.0149,-0.008 -2.38959,-1.63005 -5.27705,-3.60525 z"
       id="path1493" />
    <path
       style="fill:#000000;stroke-width:0.264583"
       d="m 34.05515,80.742526 c -3.11456,-0.63843 -5.71144,-1.20937 -5.77083,-1.26876 -0.0594,-0.0594 1.1687,-3.18643 2.72909,-6.94896 2.43715,-5.87666 2.88665,-7.19185 3.18879,-9.33011 0.19345,-1.36903 0.38255,-2.51895 0.42022,-2.55537 0.12024,-0.11625 7.03304,1.33326 7.20929,1.51168 0.0931,0.0942 -0.13597,1.28486 -0.50902,2.64583 -0.6522,2.37939 -0.67828,2.7567 -0.67846,9.81668 -1.7e-4,6.82609 -0.0327,7.34035 -0.46321,7.31598 -0.25466,-0.0144 -3.0113,-0.54855 -6.12587,-1.18697 z"
       id="path1491" />
    <path
       style="fill:#000000;stroke-width:0.264583"
       d="m 43.55446,74.836096 c 0,-7.5532 -0.03,-8.03561 -0.64231,-10.32356 l -0.64231,-2.40011 0.57616,-0.13038 c 1.90671,-0.43149 2.95249,-0.62467 3.01941,-0.55775 0.16469,0.16469 4.02778,19.83713 3.91715,19.94776 -0.0648,0.0648 -1.22479,0.34065 -2.57767,0.61293 -1.35289,0.27228 -2.72769,0.55794 -3.05512,0.6348 l -0.59531,0.13975 z"
       id="path1489" />
  </g>
  <g
     inkscape:groupmode="layer"
     id="layer3"
     inkscape:label="Inverted"
     style="display:inline" />
</svg>
